<?xml version="1.0" encoding="UTF-8" standalone="no"?>
<svg
   width="488.79688"
   zoomAndPan="magnify"
   viewBox="0 0 366.59766 122.85936"
   height="163.81248"
   preserveAspectRatio="xMidYMid"
   version="1.0"
   id="svg61"
   sodipodi:docname="firely_logo_white.svg"
   xmlns:inkscape="http://www.inkscape.org/namespaces/inkscape"
   xmlns:sodipodi="http://sodipodi.sourceforge.net/DTD/sodipodi-0.dtd"
   xmlns="http://www.w3.org/2000/svg"
   xmlns:svg="http://www.w3.org/2000/svg">
  <sodipodi:namedview
     id="namedview63"
     pagecolor="#ffffff"
     bordercolor="#666666"
     borderopacity="1.0"
     inkscape:showpageshadow="2"
     inkscape:pageopacity="0.0"
     inkscape:pagecheckerboard="0"
     inkscape:deskcolor="#d1d1d1"
     showgrid="false" />
  <defs
     id="defs7">
    <clipPath
       id="7b9e1a9b31">
      <path
         d="m 343.23047,195.05469 h 31.30078 v 31.30468 h -31.30078 z m 0,0"
         clip-rule="nonzero"
         id="path4" />
    </clipPath>
  </defs>
  <g
     fill="#ffffff"
     fill-opacity="1"
     id="g15"
     inkscape:export-filename="firely_logo_white.svg"
     inkscape:export-xdpi="96"
     inkscape:export-ydpi="96"
     transform="translate(-7.9335979,-135.8456)">
    <g
       transform="translate(0.0117232,232.11123)"
       id="g13">
      <g
         id="g11">
        <path
           d="M 7.921875,0 V -91.0625 H 68.21875 v 15.875 H 27.171875 V -53.5 h 37.03125 v 15.875 H 27.171875 V 0 Z m 0,0"
           id="path9" />
      </g>
    </g>
  </g>
  <g
     fill="#ffffff"
     fill-opacity="1"
     id="g23"
     transform="translate(-7.9335979,-135.8456)">
    <g
       transform="translate(73.239589,232.11123)"
       id="g21">
      <g
         id="g19">
        <path
           d="M 7.5625,0 V -68.296875 H 26.5 V 0 Z m 9.515625,-77.109375 c -2.792969,0 -5.199219,-0.9375 -7.21875,-2.8125 -2.011719,-1.882813 -3.015625,-4.144531 -3.015625,-6.78125 0,-2.644531 1.003906,-4.898437 3.015625,-6.765625 2.019531,-1.863281 4.425781,-2.796875 7.21875,-2.796875 2.8125,0 5.222656,0.933594 7.234375,2.796875 2.019531,1.867188 3.03125,4.121094 3.03125,6.765625 0,2.636719 -1.011719,4.898437 -3.03125,6.78125 -2.011719,1.875 -4.421875,2.8125 -7.234375,2.8125 z m 0,0"
           id="path17" />
      </g>
    </g>
  </g>
  <g
     fill="#ffffff"
     fill-opacity="1"
     id="g31"
     transform="translate(-7.9335979,-135.8456)">
    <g
       transform="translate(107.297,232.11123)"
       id="g29">
      <g
         id="g27">
        <path
           d="m 7.5625,0 v -68.296875 h 18.359375 v 11.90625 h 0.71875 c 1.238281,-4.238281 3.316406,-7.445313 6.234375,-9.625 2.925781,-2.175781 6.316406,-3.265625 10.171875,-3.265625 1.832031,0 3.535156,0.226562 5.109375,0.671875 1.570312,0.4375 2.976562,1.042969 4.21875,1.8125 l -5.6875,15.65625 c -0.886719,-0.4375 -1.855469,-0.8125 -2.90625,-1.125 -1.054688,-0.3125 -2.230469,-0.46875 -3.53125,-0.46875 -3.835938,0 -7.078125,1.308594 -9.734375,3.921875 -2.648437,2.605469 -3.984375,5.996094 -4.015625,10.171875 V 0 Z m 0,0"
           id="path25" />
      </g>
    </g>
  </g>
  <g
     fill="#ffffff"
     fill-opacity="1"
     id="g39"
     transform="translate(-7.9335979,-135.8456)">
    <g
       transform="translate(160.96187,232.11123)"
       id="g37">
      <g
         id="g35">
        <path
           d="m 38.6875,1.328125 c -7,0 -13.039062,-1.4257812 -18.109375,-4.28125 -5.0625,-2.863281 -8.960937,-6.925781 -11.6875,-12.1875 -2.730469,-5.257813 -4.09375,-11.492187 -4.09375,-18.703125 0,-7.019531 1.363281,-13.179688 4.09375,-18.484375 2.726563,-5.3125 6.570313,-9.445313 11.53125,-12.40625 4.96875,-2.96875 10.804687,-4.453125 17.515625,-4.453125 6.007812,0 11.4375,1.277344 16.28125,3.828125 4.851562,2.542969 8.703125,6.386719 11.546875,11.53125 2.84375,5.148437 4.265625,11.589844 4.265625,19.328125 v 5.203125 H 23.515625 v 0.03125 c 0,5.105469 1.394531,9.125 4.1875,12.0625 2.789063,2.929687 6.554687,4.390625 11.296875,4.390625 3.164062,0 5.90625,-0.664062 8.21875,-2 2.3125,-1.332031 3.941406,-3.300781 4.890625,-5.90625 l 17.53125,1.15625 C 68.304688,-13.21875 64.925781,-8.148438 59.5,-4.359375 c -5.429688,3.792969 -12.367188,5.6875 -20.8125,5.6875 z m -15.171875,-42.375 h 28.6875 c -0.03125,-4.0625 -1.339844,-7.410156 -3.921875,-10.046875 -2.574219,-2.632812 -5.921875,-3.953125 -10.046875,-3.953125 -4.210937,0 -7.664063,1.367187 -10.359375,4.09375 -2.699219,2.71875 -4.152344,6.023437 -4.359375,9.90625 z m 0,0"
           id="path33" />
      </g>
    </g>
  </g>
  <g
     fill="#ffffff"
     fill-opacity="1"
     id="g47"
     transform="translate(-7.9335979,-135.8456)">
    <g
       transform="translate(235.79035,232.11123)"
       id="g45">
      <g
         id="g43">
        <path
           d="M 26.5,-91.0625 V 0 H 7.5625 v -91.0625 z m 0,0"
           id="path41" />
      </g>
    </g>
  </g>
  <g
     fill="#ffffff"
     fill-opacity="1"
     id="g55"
     transform="translate(-7.9335979,-135.8456)">
    <g
       transform="translate(269.84776,232.11123)"
       id="g53">
      <g
         id="g51">
        <path
           d="m 18.59375,26.59375 c -2.699219,0 -5.007812,-0.230469 -6.921875,-0.6875 C 9.753906,25.445312 8.265625,24.976562 7.203125,24.5 L 11.46875,9.828125 c 3.351562,1.007813 6.175781,1.273437 8.46875,0.796875 2.300781,-0.46875 4.117188,-2.261719 5.453125,-5.375 l 1.25,-3.296875 -24.5,-70.25 H 22.0625 l 14.140625,50.15625 H 36.90625 L 51.1875,-68.296875 H 71.234375 L 44.5625,7.828125 c -1.929688,5.457031 -5.007812,9.945313 -9.234375,13.46875 -4.21875,3.53125 -9.796875,5.296875 -16.734375,5.296875 z m 0,0"
           id="path49" />
      </g>
    </g>
  </g>
  <g
     clip-path="url(#7b9e1a9b31)"
     id="g59"
     transform="translate(-7.9335979,-135.8456)">
    <path
       fill="#ffb347"
       d="m 374.53125,210.70703 c 0,1.02734 -0.0977,2.04297 -0.30078,3.05078 -0.19922,1.00781 -0.4961,1.98828 -0.89063,2.9375 -0.39062,0.94922 -0.875,1.85156 -1.44531,2.70703 -0.57031,0.85547 -1.21875,1.64453 -1.94531,2.3711 -0.72656,0.72656 -1.51953,1.375 -2.3711,1.94531 -0.85546,0.57031 -1.75781,1.05469 -2.70703,1.44922 -0.94922,0.39062 -1.92968,0.6875 -2.9375,0.89062 -1.00781,0.19922 -2.02343,0.30078 -3.05468,0.30078 -1.02735,0 -2.04297,-0.10156 -3.05079,-0.30078 -1.00781,-0.20312 -1.98828,-0.5 -2.9375,-0.89062 -0.94921,-0.39453 -1.85156,-0.87891 -2.70703,-1.44922 -0.85156,-0.57031 -1.64453,-1.21875 -2.37109,-1.94531 -0.72656,-0.72657 -1.375,-1.51953 -1.94531,-2.3711 -0.57032,-0.85547 -1.05469,-1.75781 -1.44532,-2.70703 -0.39453,-0.94922 -0.6914,-1.92969 -0.89062,-2.9375 -0.20313,-1.00781 -0.30078,-2.02344 -0.30078,-3.05078 0,-1.02734 0.0976,-2.04687 0.30078,-3.05469 0.19922,-1.00781 0.49609,-1.98828 0.89062,-2.9375 0.39063,-0.94922 0.875,-1.85156 1.44532,-2.70312 0.57031,-0.85547 1.21875,-1.64844 1.94531,-2.375 0.72656,-0.72656 1.51953,-1.375 2.37109,-1.94531 0.85547,-0.57032 1.75782,-1.05079 2.70703,-1.44532 0.94922,-0.39453 1.92969,-0.6914 2.9375,-0.89062 1.00782,-0.20313 2.02344,-0.30078 3.05079,-0.30078 1.03125,0 2.04687,0.0977 3.05468,0.30078 1.00782,0.19922 1.98828,0.49609 2.9375,0.89062 0.94922,0.39453 1.85157,0.875 2.70703,1.44532 0.85157,0.57031 1.64454,1.21875 2.3711,1.94531 0.72656,0.72656 1.375,1.51953 1.94531,2.375 0.57031,0.85156 1.05469,1.7539 1.44531,2.70312 0.39453,0.94922 0.69141,1.92969 0.89063,2.9375 0.20312,1.00782 0.30078,2.02735 0.30078,3.05469 z m 0,0"
       fill-opacity="1"
       fill-rule="nonzero"
       id="path57" />
  </g>
</svg>
